<svg width="30" height="31" viewBox="0 0 30 31" fill="none" xmlns="http://www.w3.org/2000/svg">
    <path d="M15 3.3125C8.27988 3.3125 2.8125 8.77988 2.8125 15.5C2.8125 22.2201 8.27988 27.6875 15 27.6875C21.7201 27.6875 27.1875 22.2201 27.1875 15.5C27.1875 8.77988 21.7201 3.3125 15 3.3125ZM19.4127 18.5873C19.5034 18.6735 19.576 18.777 19.6261 18.8916C19.6762 19.0063 19.7028 19.1298 19.7044 19.255C19.706 19.3801 19.6825 19.5043 19.6354 19.6202C19.5882 19.7361 19.5184 19.8414 19.4299 19.9299C19.3414 20.0184 19.2361 20.0882 19.1202 20.1354C19.0043 20.1825 18.8801 20.206 18.755 20.2044C18.6298 20.2028 18.5063 20.1762 18.3916 20.1261C18.277 20.076 18.1735 20.0034 18.0873 19.9127L15 16.826L11.9127 19.9127C11.7354 20.0811 11.4994 20.1736 11.255 20.1705C11.0105 20.1673 10.7769 20.0688 10.6041 19.8959C10.4312 19.7231 10.3327 19.4895 10.3295 19.245C10.3264 19.0006 10.4189 18.7646 10.5873 18.5873L13.674 15.5L10.5873 12.4127C10.4189 12.2354 10.3264 11.9994 10.3295 11.755C10.3327 11.5105 10.4312 11.2769 10.6041 11.1041C10.7769 10.9312 11.0105 10.8327 11.255 10.8295C11.4994 10.8264 11.7354 10.9189 11.9127 11.0873L15 14.174L18.0873 11.0873C18.2646 10.9189 18.5006 10.8264 18.745 10.8295C18.9895 10.8327 19.2231 10.9312 19.3959 11.1041C19.5688 11.2769 19.6673 11.5105 19.6705 11.755C19.6736 11.9994 19.5811 12.2354 19.4127 12.4127L16.326 15.5L19.4127 18.5873Z" fill="#313650"/>
</svg>
    