<svg width="60" height="61" viewBox="0 0 60 61" fill="none" xmlns="http://www.w3.org/2000/svg">
  <path d="M25.909 7.82007C22.268 7.82007 18.7089 8.89974 15.6815 10.9225C12.6542 12.9453 10.2946 15.8204 8.90131 19.1842C7.50798 22.548 7.14342 26.2495 7.85373 29.8205C8.56405 33.3915 10.3173 36.6716 12.8919 39.2462C15.4664 41.8207 18.7466 43.574 22.3176 44.2843C25.8886 44.9946 29.59 44.6301 32.9538 43.2367C36.3176 41.8434 39.1927 39.4839 41.2155 36.4565C43.2383 33.4292 44.318 29.87 44.318 26.2291C44.3177 21.3468 42.3781 16.6646 38.9258 13.2123C35.4735 9.75999 30.7913 7.82038 25.909 7.82007V7.82007Z" stroke="currentColor" stroke-width="5" stroke-miterlimit="10" />
  <path d="M39.6433 39.9634L52.5 52.82" stroke="currentColor" stroke-width="5" stroke-miterlimit="10" stroke-linecap="round" />
</svg>